<svg width="17" height="15" viewBox="0 0 17 15" fill="none" xmlns="http://www.w3.org/2000/svg">
<path d="M5.52605 10.863L8.25172 13.75M8.25172 13.75L10.9774 10.863M8.25172 13.75V7.25421M14.3027 11.6497C14.8951 11.2084 15.3394 10.5787 15.571 9.85191C15.8027 9.1251 15.8096 8.33902 15.5909 7.60774C15.3721 6.87646 14.9391 6.23804 14.3546 5.78512C13.77 5.3322 13.0645 5.08834 12.3402 5.08894H11.4817C11.2767 4.24295 10.8932 3.45723 10.3601 2.79093C9.82699 2.12463 9.15811 1.59511 8.40382 1.24224C7.64953 0.88937 6.82949 0.722342 6.00544 0.75373C5.18139 0.785119 4.3748 1.01411 3.64639 1.42345C2.91798 1.8328 2.28673 2.41184 1.80017 3.11698C1.31361 3.82212 0.984421 4.63499 0.837376 5.49439C0.690332 6.35378 0.729269 7.23731 0.951254 8.07846C1.17324 8.91962 1.57249 9.69647 2.11895 10.3505" stroke="#2E2E2E" stroke-width="1.5" stroke-linecap="round" stroke-linejoin="round"/>
</svg>
